<svg width="93" height="92" viewBox="0 0 93 92" fill="none" xmlns="http://www.w3.org/2000/svg">
<path d="M69.5 60.375V66.125H74.5255C71.3372 70.5805 67.1304 74.2097 62.2555 76.7101C57.3806 79.2106 51.9788 80.51 46.5 80.5C27.4761 80.5 12 65.0239 12 46H6.25C6.25 68.195 24.305 86.25 46.5 86.25C59.0206 86.25 70.5752 80.4971 78.125 70.8831V74.75H83.875V60.375H69.5Z" fill="#FAB467"/>
<path d="M65.2019 33.4564L47.9835 23.3939C47.544 23.1368 47.0441 23.0011 46.5349 23.0006C46.0257 23.0001 45.5255 23.1348 45.0855 23.391L27.8039 33.4535C27.3693 33.7065 27.0086 34.0689 26.7579 34.5048C26.5072 34.9407 26.3751 35.4347 26.375 35.9375V56.0625C26.3751 56.5654 26.5072 57.0594 26.7579 57.4952C27.0086 57.9311 27.3693 58.2936 27.8039 58.5465L45.0855 68.609C45.5131 68.8646 46.0019 68.9997 46.5 69C47.0002 69 47.535 68.8706 47.9835 68.6061L65.2019 58.5437C65.635 58.2902 65.9942 57.9279 66.2439 57.4926C66.4935 57.0574 66.6249 56.5643 66.625 56.0625V35.9375C66.6249 35.4357 66.4935 34.9427 66.2439 34.5074C65.9942 34.0722 65.635 33.7098 65.2019 33.4564ZM46.5316 29.2014L58.0517 35.9375L46.5316 42.6708L34.9655 35.9375L46.5316 29.2014ZM32.125 40.94L43.625 47.6388V61.1081L32.125 54.4094V40.94ZM49.375 61.1369V47.6733L60.875 40.9515V54.4151L49.375 61.1369Z" fill="#FAB467"/>
<path d="M46.5 5.75004C40.4077 5.74123 34.3934 7.12049 28.9138 9.78311C23.4341 12.4457 18.633 16.3217 14.875 21.1169V17.25H9.125V31.625H23.5V25.875H18.4745C21.6628 21.4195 25.8696 17.7904 30.7445 15.2899C35.6194 12.7895 41.0212 11.4901 46.5 11.5C65.5239 11.5 81 26.9762 81 46H86.75C86.75 23.805 68.695 5.75004 46.5 5.75004Z" fill="#FAB467"/>
</svg>
