<svg width="93" height="92" viewBox="0 0 93 92" fill="none" xmlns="http://www.w3.org/2000/svg">
<path d="M35.4101 20.8841C37.7025 14.1757 46.9715 13.9726 49.6893 20.2746L49.9193 20.8879L53.0128 29.9346C53.7218 32.0093 54.8674 33.9079 56.3725 35.5022C57.8775 37.0965 59.707 38.3496 61.7375 39.1767L62.5693 39.4872L71.616 42.5769C78.3243 44.8692 78.5275 54.1382 72.2293 56.8561L71.616 57.0861L62.5693 60.1796C60.4939 60.8881 58.5946 62.0335 56.9995 63.5386C55.4045 65.0437 54.1509 66.8734 53.3233 68.9042L53.0128 69.7322L49.9231 78.7827C47.6308 85.4911 38.3618 85.6942 35.6478 79.3961L35.4101 78.7827L32.3205 69.7361C31.612 67.6606 30.4666 65.7613 28.9615 64.1663C27.4564 62.5713 25.6267 61.3177 23.5958 60.4901L22.7678 60.1796L13.7211 57.0899C7.00897 54.7976 6.80581 45.5286 13.1078 42.8146L13.7211 42.5769L22.7678 39.4872C24.8425 38.7783 26.7411 37.6327 28.3354 36.1276C29.9298 34.6225 31.1828 32.7931 32.01 30.7626L32.3205 29.9346L35.4101 20.8841ZM42.6666 23.3604L39.577 32.4071C38.4975 35.5707 36.7413 38.4611 34.4309 40.8768C32.1204 43.2926 29.3111 45.1756 26.1986 46.3949L25.2403 46.7437L16.1936 49.8334L25.2403 52.9231C28.404 54.0026 31.2943 55.7587 33.71 58.0692C36.1258 60.3797 38.0089 63.1889 39.2281 66.3014L39.577 67.2597L42.6666 76.3064L45.7563 67.2597C46.8358 64.0961 48.5919 61.2057 50.9024 58.79C53.2129 56.3743 56.0222 54.4912 59.1346 53.2719L60.093 52.9269L69.1396 49.8334L60.093 46.7437C56.9293 45.6642 54.039 43.9081 51.6232 41.5976C49.2075 39.2872 47.3244 36.4779 46.1051 33.3654L45.7601 32.4071L42.6666 23.3604ZM73.3333 7.66675C74.0504 7.66675 74.7532 7.86791 75.3617 8.24739C75.9702 8.62686 76.4601 9.16942 76.7756 9.81342L76.9596 10.2619L78.3013 14.1949L82.2381 15.5366C82.9568 15.7807 83.5868 16.2328 84.0483 16.8354C84.5099 17.438 84.7821 18.164 84.8305 18.9215C84.879 19.679 84.7015 20.4338 84.3205 21.0903C83.9395 21.7467 83.3722 22.2754 82.6905 22.6091L82.2381 22.7931L78.3051 24.1347L76.9635 28.0716C76.7189 28.7901 76.2665 29.4198 75.6637 29.8809C75.0609 30.342 74.3347 30.6138 73.5773 30.6618C72.8198 30.7099 72.0651 30.532 71.4089 30.1507C70.7527 29.7694 70.2244 29.2019 69.891 28.5201L69.707 28.0716L68.3653 24.1386L64.4285 22.7969C63.7098 22.5527 63.0798 22.1007 62.6183 21.4981C62.1567 20.8955 61.8845 20.1695 61.8361 19.412C61.7876 18.6545 61.9651 17.8997 62.3461 17.2432C62.7271 16.5867 63.2944 16.0581 63.9761 15.7244L64.4285 15.5404L68.3615 14.1987L69.7031 10.2619C69.9616 9.50455 70.4507 8.84706 71.1017 8.38166C71.7527 7.91626 72.533 7.66627 73.3333 7.66675Z" fill="#FAB467"/>
</svg>
