<svg width="93" height="92" viewBox="0 0 93 92" fill="none" xmlns="http://www.w3.org/2000/svg">
<path d="M12 20.125C11.2375 20.125 10.5062 20.4279 9.96707 20.9671C9.4279 21.5062 9.125 22.2375 9.125 23C9.125 23.7625 9.4279 24.4938 9.96707 25.0329C10.5062 25.5721 11.2375 25.875 12 25.875H18.3825L25.9265 56.0625C26.5676 58.6213 28.859 60.375 31.4954 60.375H67.3466C69.9427 60.375 72.1479 58.65 72.8293 56.1488L80.2812 28.75H74.261L67.3438 54.625H31.4925L23.9514 24.4375C23.6399 23.199 22.9218 22.1009 21.9121 21.319C20.9024 20.5371 19.6595 20.1167 18.3825 20.125H12ZM63.75 60.375C59.0206 60.375 55.125 64.2706 55.125 69C55.125 73.7294 59.0206 77.625 63.75 77.625C68.4794 77.625 72.375 73.7294 72.375 69C72.375 64.2706 68.4794 60.375 63.75 60.375ZM37.875 60.375C33.1456 60.375 29.25 64.2706 29.25 69C29.25 73.7294 33.1456 77.625 37.875 77.625C42.6044 77.625 46.5 73.7294 46.5 69C46.5 64.2706 42.6044 60.375 37.875 60.375ZM46.5 20.125V34.5H37.875L49.375 46L60.875 34.5H52.25V20.125H46.5ZM37.875 66.125C39.4965 66.125 40.75 67.3785 40.75 69C40.75 70.6215 39.4965 71.875 37.875 71.875C36.2535 71.875 35 70.6215 35 69C35 67.3785 36.2535 66.125 37.875 66.125ZM63.75 66.125C65.3715 66.125 66.625 67.3785 66.625 69C66.625 70.6215 65.3715 71.875 63.75 71.875C62.1285 71.875 60.875 70.6215 60.875 69C60.875 67.3785 62.1285 66.125 63.75 66.125Z" fill="#FAB467"/>
</svg>
