<svg width="17" height="16" viewBox="0 0 17 16" fill="none" xmlns="http://www.w3.org/2000/svg">
<g clip-path="url(#clip0_251_67)">
<path d="M6.07338 0.52637C4.47473 1.08096 3.09606 2.13358 2.13987 3.52962C1.18367 4.92567 0.700366 6.59155 0.76093 8.28258C0.821493 9.9736 1.42274 11.6006 2.47635 12.9247C3.52996 14.2488 4.9804 15.2001 6.61463 15.6389C7.93953 15.9807 9.32764 15.9958 10.6596 15.6826C11.8663 15.4116 12.9819 14.8318 13.8971 14.0001C14.8497 13.1081 15.5412 11.9732 15.8971 10.7176C16.284 9.35221 16.3529 7.91629 16.0984 6.52012H8.65838V9.60637H12.9671C12.881 10.0986 12.6965 10.5684 12.4246 10.9877C12.1527 11.4069 11.7989 11.767 11.3846 12.0464C10.8585 12.3944 10.2654 12.6286 9.64338 12.7339C9.01956 12.8499 8.3797 12.8499 7.75588 12.7339C7.12361 12.6031 6.5255 12.3422 5.99963 11.9676C5.15481 11.3696 4.52047 10.52 4.18713 9.54012C3.84815 8.54186 3.84815 7.45963 4.18713 6.46137C4.42441 5.76164 4.81667 5.12454 5.33463 4.59762C5.92737 3.98355 6.67779 3.54462 7.50357 3.32896C8.32935 3.11331 9.19858 3.12928 10.0159 3.37512C10.6543 3.57111 11.2382 3.91354 11.7209 4.37512C12.2067 3.89179 12.6917 3.4072 13.1759 2.92137C13.4259 2.66012 13.6984 2.41137 13.9446 2.14387C13.2078 1.45822 12.343 0.924691 11.3996 0.57387C9.68176 -0.049893 7.8021 -0.066656 6.07338 0.52637Z" fill="white"/>
<path d="M6.07348 0.526245C7.80206 -0.067184 9.68171 -0.0508623 11.3997 0.572495C12.3432 0.925699 13.2077 1.46179 13.9435 2.14999C13.6935 2.41749 13.4297 2.66749 13.1747 2.92749C12.6897 3.41166 12.2051 3.89416 11.721 4.37499C11.2383 3.91342 10.6544 3.57098 10.016 3.37499C9.19895 3.1283 8.32975 3.1114 7.50375 3.32617C6.67775 3.54094 5.92687 3.97907 5.33348 4.59249C4.81552 5.11941 4.42326 5.75652 4.18598 6.45624L1.59473 4.44999C2.52224 2.6107 4.12816 1.20377 6.07348 0.526245Z" fill="#E33629"/>
<path d="M0.907926 6.43745C1.0472 5.74719 1.27843 5.07873 1.59543 4.44995L4.18668 6.4612C3.84769 7.45946 3.84769 8.54169 4.18668 9.53995C3.32334 10.2066 2.45959 10.8766 1.59543 11.55C0.801864 9.97035 0.559842 8.17058 0.907926 6.43745Z" fill="#F8BD00"/>
<path d="M8.65876 6.5188H16.0988C16.3533 7.91496 16.2844 9.35088 15.8975 10.7163C15.5416 11.9719 14.8501 13.1067 13.8975 13.9988C13.0613 13.3463 12.2213 12.6988 11.385 12.0463C11.7996 11.7666 12.1535 11.4062 12.4254 10.9865C12.6973 10.5668 12.8817 10.0965 12.9675 9.6038H8.65876C8.65751 8.5763 8.65876 7.54755 8.65876 6.5188Z" fill="#587DBD"/>
<path d="M1.59375 11.55C2.45792 10.8834 3.32167 10.2134 4.185 9.54004C4.51901 10.5203 5.15426 11.3699 6 11.9675C6.52751 12.3404 7.12691 12.5992 7.76 12.7275C8.38382 12.8435 9.02368 12.8435 9.6475 12.7275C10.2695 12.6223 10.8626 12.3881 11.3888 12.04C12.225 12.6925 13.065 13.34 13.9012 13.9925C12.9861 14.8247 11.8705 15.4049 10.6637 15.6763C9.33176 15.9894 7.94365 15.9744 6.61875 15.6325C5.57088 15.3528 4.59209 14.8595 3.74375 14.1838C2.84583 13.4709 2.11244 12.5725 1.59375 11.55Z" fill="#319F43"/>
</g>
<defs>
<clipPath id="clip0_251_67">
<rect width="16" height="16" fill="white" transform="translate(0.5)"/>
</clipPath>
</defs>
</svg>
