<svg width="25" height="24" viewBox="0 0 25 24" fill="none" xmlns="http://www.w3.org/2000/svg">
<g clip-path="url(#clip0_336_330)">
<path d="M19.9755 12.8687L19.2199 5.69485C19.1962 5.45907 19.0858 5.24049 18.9102 5.08144C18.7345 4.9224 18.5061 4.83421 18.2691 4.83398H12.3387C12.1017 4.83421 11.8733 4.9224 11.6976 5.08144C11.522 5.24049 11.4116 5.45907 11.3879 5.69485L10.6322 12.8687C10.6188 13.0021 10.6336 13.1369 10.6756 13.2642C10.7177 13.3915 10.786 13.5086 10.8762 13.6078C10.9664 13.707 11.0764 13.7862 11.1992 13.8401C11.322 13.8941 11.4547 13.9216 11.5888 13.9209H19.0286C19.1627 13.9216 19.2954 13.8941 19.4182 13.8401C19.5409 13.7862 19.651 13.707 19.7412 13.6078C19.8313 13.5086 19.8997 13.3915 19.9417 13.2642C19.9837 13.1369 19.9985 13.0021 19.9851 12.8687H19.9755Z" fill="#C2F3FF"/>
<path d="M15.3039 10.4197C13.7517 10.4222 12.2474 9.88298 11.0502 8.89502L10.6322 12.8684C10.6188 13.0019 10.6336 13.1366 10.6756 13.2639C10.7177 13.3912 10.786 13.5083 10.8762 13.6075C10.9664 13.7067 11.0764 13.7859 11.1992 13.8398C11.322 13.8938 11.4547 13.9213 11.5888 13.9206H19.0286C19.1627 13.9213 19.2954 13.8938 19.4182 13.8398C19.5409 13.7859 19.651 13.7067 19.7412 13.6075C19.8313 13.5083 19.8997 13.3912 19.9417 13.2639C19.9837 13.1366 19.9985 13.0019 19.9851 12.8684L19.5671 8.89885C18.3669 9.88745 16.8588 10.4255 15.3039 10.4197Z" fill="#66E1FF"/>
<path d="M1.9126 23.0076V13.4424" stroke="#191919" stroke-linecap="round" stroke-linejoin="round"/>
<path d="M1.9126 15.3555H8.60825C9.36931 15.3555 10.0992 15.6578 10.6373 16.196C11.1755 16.7341 11.4778 17.464 11.4778 18.225H17.2169C17.978 18.225 18.7079 18.5274 19.246 19.0655C19.7842 19.6037 20.0865 20.3336 20.0865 21.0946H1.9126V15.3555Z" fill="#FFDDA1" stroke="#191919" stroke-linecap="round" stroke-linejoin="round"/>
<path d="M11.4775 18.2251H8.60791" stroke="#191919" stroke-linecap="round" stroke-linejoin="round"/>
<path d="M22.9559 8.65967H17.2168C16.9631 8.65967 16.7198 8.76044 16.5404 8.93983C16.361 9.11921 16.2603 9.3625 16.2603 9.61619V14.3988C16.2603 14.6525 16.361 14.8958 16.5404 15.0752C16.7198 15.2546 16.9631 15.3553 17.2168 15.3553H22.9559C23.2096 15.3553 23.4529 15.2546 23.6323 15.0752C23.8117 14.8958 23.9124 14.6525 23.9124 14.3988V9.61619C23.9124 9.49058 23.8877 9.3662 23.8396 9.25014C23.7915 9.13409 23.7211 9.02865 23.6323 8.93983C23.5435 8.85101 23.438 8.78055 23.322 8.73248C23.2059 8.68441 23.0815 8.65967 22.9559 8.65967Z" fill="#FF808C"/>
<path d="M22.9559 8.65967H17.2168C16.9631 8.65967 16.7198 8.76044 16.5404 8.93983C16.361 9.11921 16.2603 9.3625 16.2603 9.61619V12.0075C16.2603 11.7538 16.361 11.5105 16.5404 11.3311C16.7198 11.1518 16.9631 11.051 17.2168 11.051H22.9559C23.2096 11.051 23.4529 11.1518 23.6323 11.3311C23.8117 11.5105 23.9124 11.7538 23.9124 12.0075V9.61619C23.9124 9.3625 23.8117 9.11921 23.6323 8.93983C23.4529 8.76044 23.2096 8.65967 22.9559 8.65967Z" fill="#FFBFC5"/>
<path d="M22.9559 8.65967H17.2168C16.9631 8.65967 16.7198 8.76044 16.5404 8.93983C16.361 9.11921 16.2603 9.3625 16.2603 9.61619V14.3988C16.2603 14.6525 16.361 14.8958 16.5404 15.0752C16.7198 15.2546 16.9631 15.3553 17.2168 15.3553H22.9559C23.2096 15.3553 23.4529 15.2546 23.6323 15.0752C23.8117 14.8958 23.9124 14.6525 23.9124 14.3988V9.61619C23.9124 9.49058 23.8877 9.3662 23.8396 9.25014C23.7915 9.13409 23.7211 9.02865 23.6323 8.93983C23.5435 8.85101 23.438 8.78055 23.322 8.73248C23.2059 8.68441 23.0815 8.65967 22.9559 8.65967Z" stroke="#191919" stroke-linecap="round" stroke-linejoin="round"/>
<path d="M20.0864 8.65967V15.3553" stroke="#191919" stroke-linecap="round" stroke-linejoin="round"/>
<path d="M16.2603 12.4863H23.9124" stroke="#191919" stroke-linecap="round" stroke-linejoin="round"/>
<path d="M19.1295 4.83398H12.3382C12.102 4.83409 11.8741 4.92161 11.6986 5.07967C11.5231 5.23773 11.4122 5.45515 11.3874 5.69007L10.6318 12.8639C10.6176 12.9977 10.6319 13.133 10.6736 13.2609C10.7153 13.3888 10.7835 13.5065 10.8738 13.6062C10.964 13.706 11.0743 13.7856 11.1975 13.8398C11.3206 13.894 11.4537 13.9216 11.5883 13.9209H16.2599" stroke="#191919" stroke-linecap="round" stroke-linejoin="round"/>
<path d="M17.2167 4.8339V2.92085C17.2167 2.41348 17.0152 1.92689 16.6564 1.56813C16.2976 1.20936 15.811 1.00781 15.3037 1.00781C15.0524 1.00781 14.8037 1.05729 14.5716 1.15343C14.3395 1.24957 14.1286 1.39048 13.9509 1.56813C13.7733 1.74577 13.6324 1.95666 13.5362 2.18876C13.4401 2.42086 13.3906 2.66963 13.3906 2.92085V4.8339" stroke="#191919" stroke-linecap="round" stroke-linejoin="round"/>
<path d="M20.0859 8.66011L18.1729 6.74707" stroke="#191919" stroke-linecap="round" stroke-linejoin="round"/>
<path d="M21.9995 6.74707L20.0864 8.66011" stroke="#191919" stroke-linecap="round" stroke-linejoin="round"/>
</g>
<defs>
<clipPath id="clip0_336_330">
<rect width="24" height="24" fill="white" transform="translate(0.912598 0.0078125)"/>
</clipPath>
</defs>
</svg>
