<svg width="26" height="26" viewBox="0 0 26 26" fill="none" xmlns="http://www.w3.org/2000/svg">
<g clip-path="url(#clip0_327_115)">
<path d="M7.07227 9.44545C9.17455 7.57716 10.4783 6.94573 13.0003 6.48145C15.5223 6.94759 16.826 7.57716 18.9283 9.44545L13.0003 12.4094L7.07227 9.44545Z" stroke="white" stroke-opacity="0.8" stroke-width="1.85714" stroke-linecap="round" stroke-linejoin="round"/>
<path d="M13.0004 12.3945V19.3235M7.07236 9.44531C6.3425 11.451 6.33507 13.843 6.9145 15.858C7.012 16.1883 7.20602 16.482 7.47164 16.7012C9.3065 18.2315 10.5619 18.7942 12.6085 19.2417C12.8668 19.2975 13.134 19.2975 13.3922 19.2417C15.4388 18.7942 16.6942 18.2315 18.5272 16.7012C18.7935 16.4822 18.9882 16.1886 19.0862 15.858C19.6656 13.843 19.6582 11.451 18.9284 9.44531L13.0004 12.4093L7.07236 9.44531Z" stroke="white" stroke-opacity="0.8" stroke-width="1.85714" stroke-linecap="round" stroke-linejoin="round"/>
<path d="M1.39307 12.9998C1.39207 10.4158 2.25335 7.90536 3.84045 5.8662C5.42755 3.82704 7.64971 2.37577 10.1549 1.74234C12.66 1.10891 15.3049 1.32953 17.6705 2.36924C20.0361 3.40896 21.9872 5.20832 23.2145 7.48225C23.3556 5.43568 23.3129 4.26568 23.0288 2.14296M24.6074 12.9998C24.6082 15.5784 23.7503 18.0839 22.1691 20.1208C20.588 22.1577 18.3735 23.6102 15.8753 24.2489C13.3771 24.8876 10.7373 24.6762 8.37246 23.6482C6.00768 22.6201 4.05256 20.8338 2.81564 18.5712C2.6745 20.6178 2.71535 21.7878 3.00135 23.9105" stroke="white" stroke-opacity="0.8" stroke-width="1.85714" stroke-linecap="round" stroke-linejoin="round"/>
</g>
<defs>
<clipPath id="clip0_327_115">
<rect width="26" height="26" fill="white"/>
</clipPath>
</defs>
</svg>
