<svg width="24" height="24" viewBox="0 0 24 24" fill="none" xmlns="http://www.w3.org/2000/svg">
<path d="M1 22.3301H23" stroke="#191919" stroke-linecap="round" stroke-linejoin="round"/>
<path d="M4.82562 22.3301V20.0345C4.82438 19.973 4.81101 19.9122 4.78631 19.8559C4.76161 19.7994 4.72602 19.7485 4.68161 19.7058C4.63719 19.6632 4.58482 19.6298 4.52746 19.6074C4.47011 19.585 4.40891 19.5741 4.34736 19.5753H2.43432C2.37276 19.5741 2.31157 19.585 2.25421 19.6074C2.19686 19.6298 2.14448 19.6632 2.10007 19.7058C2.05566 19.7485 2.02007 19.7994 1.99537 19.8559C1.97066 19.9122 1.9573 19.973 1.95605 20.0345V22.3301H4.82562Z" fill="#FFEF5E"/>
<path d="M10.5649 22.3302V16.3615C10.5636 16.3 10.5502 16.2393 10.5256 16.183C10.5009 16.1265 10.4653 16.0755 10.4208 16.033C10.3764 15.9903 10.324 15.9568 10.2667 15.9345C10.2093 15.9121 10.1482 15.9012 10.0866 15.9024H8.17357C8.11202 15.9012 8.05082 15.9121 7.99347 15.9345C7.93612 15.9568 7.88374 15.9903 7.83933 16.033C7.79492 16.0755 7.75933 16.1265 7.73463 16.183C7.70992 16.2393 7.69656 16.3 7.69531 16.3615V22.3302H10.5649Z" fill="#D480FF"/>
<path d="M16.3041 22.3304V12.6887C16.3029 12.6271 16.2895 12.5664 16.2648 12.51C16.2401 12.4536 16.2046 12.4027 16.1601 12.36C16.1157 12.3174 16.0633 12.2839 16.006 12.2615C15.9486 12.2391 15.8875 12.2282 15.8259 12.2296H13.9128C13.8512 12.2282 13.7901 12.2391 13.7327 12.2615C13.6754 12.2839 13.623 12.3174 13.5786 12.36C13.5341 12.4027 13.4986 12.4536 13.4739 12.51C13.4492 12.5664 13.4358 12.6271 13.4346 12.6887V22.3304H16.3041Z" fill="#FFEF5E"/>
<path d="M22.0434 22.3306V9.01587C22.0421 8.95431 22.0288 8.8936 22.0041 8.83722C21.9794 8.78082 21.9438 8.72986 21.8993 8.68722C21.855 8.64458 21.8025 8.61111 21.7452 8.58872C21.6879 8.56634 21.6267 8.55546 21.5651 8.55674H19.6521C19.5905 8.55546 19.5294 8.56634 19.472 8.58872C19.4147 8.61111 19.3623 8.64458 19.3179 8.68722C19.2734 8.72986 19.2378 8.78082 19.2131 8.83722C19.1885 8.8936 19.1751 8.95431 19.1738 9.01587V22.3306H22.0434Z" fill="#D480FF"/>
<path d="M4.82562 22.3301V20.0345C4.82438 19.973 4.81101 19.9122 4.78631 19.8559C4.76161 19.7994 4.72602 19.7485 4.68161 19.7058C4.63719 19.6632 4.58482 19.6298 4.52746 19.6074C4.47011 19.585 4.40891 19.5741 4.34736 19.5753H2.43432C2.37276 19.5741 2.31157 19.585 2.25421 19.6074C2.19686 19.6298 2.14448 19.6632 2.10007 19.7058C2.05566 19.7485 2.02007 19.7994 1.99537 19.8559C1.97066 19.9122 1.9573 19.973 1.95605 20.0345V22.3301H4.82562Z" fill="#FFEF5E"/>
<path d="M10.0866 15.9024H8.17357C8.11202 15.9012 8.05082 15.9121 7.99347 15.9345C7.93612 15.9568 7.88374 15.9903 7.83933 16.033C7.79492 16.0755 7.75933 16.1265 7.73463 16.183C7.70992 16.2393 7.69656 16.3 7.69531 16.3615V18.442C7.69656 18.3805 7.70992 18.3197 7.73463 18.2634C7.75933 18.207 7.79492 18.156 7.83933 18.1134C7.88374 18.0708 7.93612 18.0373 7.99347 18.0149C8.05082 17.9925 8.11202 17.9816 8.17357 17.9829H10.0866C10.1482 17.9816 10.2093 17.9925 10.2667 18.0149C10.324 18.0373 10.3764 18.0708 10.4208 18.1134C10.4653 18.156 10.5009 18.207 10.5256 18.2634C10.5502 18.3197 10.5636 18.3805 10.5649 18.442V16.3615C10.5636 16.3 10.5502 16.2393 10.5256 16.183C10.5009 16.1265 10.4653 16.0755 10.4208 16.033C10.3764 15.9903 10.324 15.9568 10.2667 15.9345C10.2093 15.9121 10.1482 15.9012 10.0866 15.9024Z" fill="#EABFFF"/>
<path d="M15.8259 12.2296H13.9128C13.8512 12.2282 13.7901 12.2391 13.7327 12.2615C13.6754 12.2839 13.623 12.3174 13.5786 12.36C13.5341 12.4027 13.4986 12.4536 13.4739 12.51C13.4492 12.5664 13.4358 12.6271 13.4346 12.6887V14.7739C13.4371 14.6495 13.4889 14.5311 13.5785 14.4449C13.6682 14.3587 13.7884 14.3115 13.9128 14.3138H15.8259C15.9503 14.3115 16.0706 14.3587 16.1602 14.4449C16.2498 14.5311 16.3016 14.6495 16.3041 14.7739V12.6887C16.3029 12.6271 16.2895 12.5664 16.2648 12.51C16.2401 12.4536 16.2046 12.4027 16.1601 12.36C16.1157 12.3174 16.0633 12.2839 16.006 12.2615C15.9486 12.2391 15.8875 12.2282 15.8259 12.2296Z" fill="#FFF9BF"/>
<path d="M21.5651 8.55674H19.6521C19.5905 8.55546 19.5294 8.56634 19.472 8.58872C19.4147 8.61111 19.3623 8.64458 19.3179 8.68722C19.2734 8.72986 19.2378 8.78082 19.2131 8.83722C19.1885 8.8936 19.1751 8.95431 19.1738 9.01587V11.0963C19.1751 11.0347 19.1885 10.974 19.2131 10.9176C19.2378 10.8612 19.2734 10.8103 19.3179 10.7676C19.3623 10.7249 19.4147 10.6915 19.472 10.6692C19.5294 10.6467 19.5905 10.6359 19.6521 10.6371H21.5651C21.6267 10.6359 21.6879 10.6467 21.7452 10.6692C21.8025 10.6915 21.855 10.7249 21.8993 10.7676C21.9438 10.8103 21.9794 10.8612 22.0041 10.9176C22.0288 10.974 22.0421 11.0347 22.0434 11.0963V9.01587C22.0421 8.95431 22.0288 8.8936 22.0041 8.83722C21.9794 8.78082 21.9438 8.72986 21.8993 8.68722C21.855 8.64458 21.8025 8.61111 21.7452 8.58872C21.6879 8.56634 21.6267 8.55546 21.5651 8.55674Z" fill="#EABFFF"/>
<path d="M4.82562 22.3301V20.0345C4.82438 19.973 4.81101 19.9122 4.78631 19.8559C4.7616 19.7994 4.72602 19.7485 4.68161 19.7058C4.63719 19.6632 4.58482 19.6298 4.52746 19.6074C4.47011 19.585 4.40891 19.5741 4.34736 19.5753H2.43432C2.37276 19.5741 2.31157 19.585 2.25421 19.6074C2.19686 19.6298 2.14448 19.6632 2.10007 19.7058C2.05566 19.7485 2.02007 19.7994 1.99537 19.8559C1.97066 19.9122 1.9573 19.973 1.95605 20.0345V22.3301H4.82562Z" stroke="#191919" stroke-linecap="round" stroke-linejoin="round"/>
<path d="M10.5649 22.3302V16.3615C10.5636 16.3 10.5502 16.2393 10.5256 16.183C10.5009 16.1265 10.4653 16.0755 10.4208 16.033C10.3764 15.9903 10.324 15.9568 10.2667 15.9345C10.2093 15.9121 10.1482 15.9012 10.0866 15.9024H8.17357C8.11202 15.9012 8.05082 15.9121 7.99347 15.9345C7.93612 15.9568 7.88374 15.9903 7.83933 16.033C7.79492 16.0755 7.75933 16.1265 7.73463 16.183C7.70992 16.2393 7.69656 16.3 7.69531 16.3615V22.3302H10.5649Z" stroke="#191919" stroke-linecap="round" stroke-linejoin="round"/>
<path d="M16.3041 22.3304V12.6887C16.3029 12.6271 16.2895 12.5664 16.2648 12.51C16.2401 12.4536 16.2046 12.4027 16.1601 12.36C16.1157 12.3174 16.0633 12.2839 16.006 12.2615C15.9486 12.2391 15.8875 12.2282 15.8259 12.2296H13.9128C13.8512 12.2282 13.7901 12.2391 13.7327 12.2615C13.6754 12.2839 13.623 12.3174 13.5786 12.36C13.5341 12.4027 13.4986 12.4536 13.4739 12.51C13.4492 12.5664 13.4358 12.6271 13.4346 12.6887V22.3304H16.3041Z" stroke="#191919" stroke-linecap="round" stroke-linejoin="round"/>
<path d="M22.0434 22.3306V9.01587C22.0421 8.95431 22.0288 8.8936 22.0041 8.83722C21.9794 8.78082 21.9438 8.72986 21.8993 8.68722C21.855 8.64458 21.8025 8.61111 21.7452 8.58872C21.6879 8.56634 21.6267 8.55546 21.5651 8.55674H19.6521C19.5905 8.55546 19.5294 8.56634 19.472 8.58872C19.4147 8.61111 19.3623 8.64458 19.3179 8.68722C19.2734 8.72986 19.2378 8.78082 19.2131 8.83722C19.1885 8.8936 19.1751 8.95431 19.1738 9.01587V22.3306H22.0434Z" stroke="#191919" stroke-linecap="round" stroke-linejoin="round"/>
<path d="M3.39111 13.1476L20.6085 2.12842" stroke="#191919" stroke-linecap="round" stroke-linejoin="round"/>
<path d="M20.1305 5.8016L20.6088 2.12856L16.7827 1.66943" stroke="#191919" stroke-linecap="round" stroke-linejoin="round"/>
</svg>
