<svg width="26" height="26" viewBox="0 0 26 26" fill="none" xmlns="http://www.w3.org/2000/svg">
<path d="M22.75 21.3957C22.75 19.1315 20.9408 15.9053 18.4167 15.1914M16.25 21.3957C16.25 18.5238 13.3402 14.8957 9.75 14.8957C6.15983 14.8957 3.25 18.5238 3.25 21.3957M16.25 11.104C17.112 11.104 17.9386 10.7616 18.5481 10.1521C19.1576 9.54261 19.5 8.71596 19.5 7.854C19.5 6.99205 19.1576 6.1654 18.5481 5.55591C17.9386 4.94641 17.112 4.604 16.25 4.604M13 7.854C13 8.71596 12.6576 9.54261 12.0481 10.1521C11.4386 10.7616 10.612 11.104 9.75 11.104C8.88805 11.104 8.0614 10.7616 7.4519 10.1521C6.84241 9.54261 6.5 8.71596 6.5 7.854C6.5 6.99205 6.84241 6.1654 7.4519 5.55591C8.0614 4.94641 8.88805 4.604 9.75 4.604C10.612 4.604 11.4386 4.94641 12.0481 5.55591C12.6576 6.1654 13 6.99205 13 7.854Z" stroke="white" stroke-width="1.5" stroke-linecap="round" stroke-linejoin="round"/>
</svg>
