<svg width="28" height="28" viewBox="0 0 28 28" fill="none" xmlns="http://www.w3.org/2000/svg">
<path d="M10.6577 26.8336C11.1298 24.2825 11.0516 22.8396 12.4533 22.2381L17.3534 20.1379V17.906C17.3534 17.906 16.2987 17.5166 16.2987 15.1161C15.204 15.1161 15.204 12.8843 16.2987 12.8843C16.2987 12.5629 14.4641 10.1737 16.7697 10.6524C17.3176 8.42055 22.7188 8.42055 23.2666 10.6524C23.3385 11.0384 23.3321 11.4348 23.2477 11.8182C23.1634 12.2016 23.0029 12.5642 22.7757 12.8843C23.8369 12.8843 23.5468 15.1161 22.7835 15.1161C22.7835 17.5166 21.8171 17.906 21.8171 17.906V20.1379L25.4629 21.6645C25.8688 21.8344 26.2155 22.1205 26.4593 22.4868C26.7032 22.8531 26.8333 23.2833 26.8333 23.7233V26.8336H10.6577Z" fill="#E3E3E3"/>
<path d="M1.1665 26.8336C1.63855 24.2825 1.56043 22.8396 2.96205 22.2381L7.86212 20.1379V17.906C7.86212 17.906 6.80756 17.5166 6.80756 15.1161C5.71283 15.1161 5.71283 12.8843 6.80756 12.8843C6.80756 12.5629 4.97296 10.1737 7.2785 10.6524C7.82641 8.42055 13.2275 8.42055 13.7755 10.6524C13.8472 11.0384 13.8408 11.4348 13.7565 11.8182C13.6721 12.2016 13.5116 12.5642 13.2844 12.8843C14.3458 12.8843 14.0556 15.1161 13.2923 15.1161C13.2923 17.5166 12.3259 17.906 12.3259 17.906V20.1379L17.2259 22.2381C18.6243 22.8374 18.5473 24.2679 19.0215 26.8336H1.1665Z" fill="#FAB467" stroke="#191919" stroke-linecap="round" stroke-linejoin="round"/>
<path d="M22.777 15.1157C22.777 17.5151 21.8105 17.9056 21.8105 17.9056V20.1375L25.5065 21.7802C25.9012 21.9554 26.2365 22.2415 26.4718 22.6036C26.7072 22.9656 26.8323 23.3882 26.8323 23.8201V26.8331H22.9265" stroke="#191919" stroke-linecap="round" stroke-linejoin="round"/>
</svg>
