<svg width="261" height="58" viewBox="0 0 261 58" fill="none" xmlns="http://www.w3.org/2000/svg">
<path d="M45.4251 52.5861C40.8819 55.7289 35.3946 57.5899 29.4693 57.6538C13.8967 57.8226 0.896786 45.3016 0.509068 29.729C0.107665 13.568 13.0848 0.344509 29.1546 0.344509C36.3662 0.344509 42.9528 3.00836 47.984 7.40098C48.4402 7.79782 48.1072 8.54133 47.5096 8.47291C37.4426 7.29151 27.59 8.3908 21.3546 13.2304C14.1567 18.8181 13.4725 27.2978 17.6234 34.7648C23.4802 45.3016 36.4528 45.4065 45.4251 51.5598C45.7854 51.8061 45.7854 52.3398 45.4251 52.5861Z" fill="white"/>
<path d="M57.8092 28.9992C57.8092 32.8946 57.0338 36.6076 55.6243 39.9921C48.4128 36.1377 40.736 33.5104 37.2921 32.2241C33.2234 30.696 29.6609 26.4539 32.0374 22.7272C34.4139 19.0006 40.3437 18.3209 47.6373 20.182C50.7482 20.9802 53.6265 23.0192 56.2493 25.4504C57.23 26.3627 57.8093 27.6353 57.8138 28.9764C57.8093 28.9855 57.8092 28.99 57.8092 28.9992Z" fill="white"/>
<path d="M80.7172 48.3328V17.1404H105.574C107.929 17.1404 109.859 17.3638 111.361 17.8106C112.878 18.2438 113.995 19.0223 114.712 20.1459C115.443 21.2561 115.809 22.8333 115.809 24.8776C115.809 26.7188 115.382 28.2419 114.529 29.4468C113.676 30.6517 112.37 31.3151 110.61 31.4369C112.911 31.6671 114.57 32.4929 115.585 33.9145C116.601 35.3225 117.108 37.096 117.108 39.235C117.108 41.0898 116.892 42.6129 116.459 43.8042C116.039 44.9956 115.328 45.923 114.326 46.5864C113.324 47.2362 111.964 47.6898 110.244 47.947C108.539 48.2042 106.406 48.3328 103.848 48.3328H80.7172ZM84.6162 30.1373H102.792C104.89 30.1373 106.609 30.0628 107.95 29.9139C109.29 29.7649 110.285 29.325 110.935 28.5939C111.585 27.8628 111.91 26.624 111.91 24.8776C111.91 23.5102 111.713 22.5084 111.321 21.8721C110.942 21.2358 110.292 20.8296 109.371 20.6536C108.451 20.4776 107.185 20.3896 105.574 20.3896H84.6162V30.1373ZM84.6162 45.0836H103.848C105.702 45.0836 107.232 45.0362 108.437 44.9415C109.655 44.8467 110.61 44.6165 111.3 44.251C112.004 43.8855 112.499 43.3101 112.783 42.5249C113.067 41.7261 113.209 40.6295 113.209 39.235C113.209 37.8 112.939 36.6831 112.397 35.8843C111.869 35.0855 111.124 34.5102 110.163 34.1582C109.215 33.8062 108.112 33.5895 106.853 33.5083C105.594 33.4271 104.24 33.3865 102.792 33.3865H84.6162V45.0836Z" fill="white"/>
<path d="M134.654 48.7796C131.852 48.7796 129.537 48.6307 127.709 48.3328C125.895 48.0485 124.541 47.4122 123.647 46.4239C122.767 45.4356 122.327 43.899 122.327 41.8141C122.327 39.6886 122.74 38.1317 123.566 37.1434C124.406 36.1415 125.726 35.4917 127.526 35.1938C129.34 34.896 131.716 34.7471 134.654 34.7471C137.037 34.7471 139.034 34.8012 140.645 34.9095C142.256 35.0178 143.698 35.2074 144.97 35.4781C144.943 33.6775 144.821 32.2628 144.605 31.2339C144.388 30.1914 143.982 29.4197 143.386 28.9188C142.791 28.4179 141.917 28.0997 140.767 27.9643C139.629 27.8154 138.113 27.741 136.218 27.741C134.052 27.741 132.353 27.7883 131.121 27.8831C129.902 27.9779 129.015 28.1471 128.46 28.3908C127.905 28.6345 127.553 28.9865 127.404 29.4468C127.269 29.9071 127.201 30.5028 127.201 31.2339H123.302C123.302 29.7717 123.498 28.5939 123.891 27.7003C124.297 26.8068 124.981 26.1299 125.942 25.6696C126.903 25.2093 128.217 24.8979 129.882 24.7354C131.561 24.573 133.673 24.4918 136.218 24.4918C138.952 24.4918 141.152 24.6678 142.818 25.0198C144.496 25.3717 145.769 26.0081 146.636 26.9287C147.516 27.8357 148.104 29.1083 148.402 30.7465C148.714 32.3846 148.869 34.4966 148.869 37.0824V48.3328H144.97V46.7285C144.51 47.2159 143.874 47.6085 143.061 47.9064C142.249 48.2042 141.166 48.4208 139.812 48.5562C138.472 48.7051 136.753 48.7796 134.654 48.7796ZM134.654 45.6116C136.969 45.6116 138.817 45.5845 140.198 45.5304C141.579 45.4762 142.608 45.3273 143.285 45.0836C143.975 44.8399 144.429 44.4473 144.645 43.9058C144.862 43.3642 144.97 42.6061 144.97 41.6313V38.0369L134.654 37.915C132.826 37.888 131.351 37.915 130.227 37.9963C129.117 38.064 128.271 38.2264 127.689 38.4837C127.106 38.7274 126.714 39.12 126.511 39.6615C126.321 40.1895 126.226 40.907 126.226 41.8141C126.226 42.6941 126.321 43.3913 126.511 43.9058C126.714 44.4202 127.106 44.7993 127.689 45.043C128.271 45.2867 129.117 45.4424 130.227 45.5101C131.351 45.5778 132.826 45.6116 134.654 45.6116Z" fill="white"/>
<path d="M153.987 48.3328V45.0836L173.746 27.944H155.287V24.9385H178.681V28.1877L159.206 45.2867H178.681V48.3328H153.987Z" fill="white"/>
<path d="M183.88 48.3328V45.0836L203.639 27.944H185.179V24.9385H208.574V28.1877L189.099 45.2867H208.574V48.3328H183.88Z" fill="white"/>
<path d="M226.119 48.7796C223.317 48.7796 221.002 48.6307 219.174 48.3328C217.36 48.0485 216.006 47.4122 215.113 46.4239C214.233 45.4356 213.793 43.899 213.793 41.8141C213.793 39.6886 214.206 38.1317 215.031 37.1434C215.871 36.1415 217.191 35.4917 218.991 35.1938C220.806 34.896 223.181 34.7471 226.119 34.7471C228.502 34.7471 230.499 34.8012 232.11 34.9095C233.721 35.0178 235.163 35.2074 236.436 35.4781C236.408 33.6775 236.287 32.2628 236.07 31.2339C235.853 30.1914 235.447 29.4197 234.852 28.9188C234.256 28.4179 233.383 28.0997 232.232 27.9643C231.095 27.8154 229.578 27.741 227.683 27.741C225.517 27.741 223.818 27.7883 222.586 27.8831C221.367 27.9779 220.481 28.1471 219.926 28.3908C219.37 28.6345 219.018 28.9865 218.87 29.4468C218.734 29.9071 218.666 30.5028 218.666 31.2339H214.767C214.767 29.7717 214.964 28.5939 215.356 27.7003C215.762 26.8068 216.446 26.1299 217.407 25.6696C218.369 25.2093 219.682 24.8979 221.347 24.7354C223.026 24.573 225.138 24.4918 227.683 24.4918C230.418 24.4918 232.618 24.6678 234.283 25.0198C235.962 25.3717 237.234 26.0081 238.101 26.9287C238.981 27.8357 239.57 29.1083 239.868 30.7465C240.179 32.3846 240.335 34.4966 240.335 37.0824V48.3328H236.436V46.7285C235.975 47.2159 235.339 47.6085 234.527 47.9064C233.714 48.2042 232.631 48.4208 231.277 48.5562C229.937 48.7051 228.218 48.7796 226.119 48.7796ZM226.119 45.6116C228.434 45.6116 230.282 45.5845 231.663 45.5304C233.044 45.4762 234.073 45.3273 234.75 45.0836C235.44 44.8399 235.894 44.4473 236.111 43.9058C236.327 43.3642 236.436 42.6061 236.436 41.6313V38.0369L226.119 37.915C224.292 37.888 222.816 37.915 221.692 37.9963C220.582 38.064 219.736 38.2264 219.154 38.4837C218.572 38.7274 218.179 39.12 217.976 39.6615C217.786 40.1895 217.692 40.907 217.692 41.8141C217.692 42.6941 217.786 43.3913 217.976 43.9058C218.179 44.4202 218.572 44.7993 219.154 45.043C219.736 45.2867 220.582 45.4424 221.692 45.5101C222.816 45.5778 224.292 45.6116 226.119 45.6116Z" fill="white"/>
<path d="M245.858 48.3328V24.9385H249.757V28.1674C250.191 27.477 250.624 26.9016 251.057 26.4413C251.504 25.981 252.079 25.6154 252.783 25.3447C253.501 25.0739 254.469 24.8844 255.687 24.7761C256.906 24.6542 258.51 24.5933 260.5 24.5933V27.8628C257.819 27.8628 255.741 27.9576 254.266 28.1471C252.803 28.3367 251.754 28.6616 251.118 29.1219C250.482 29.5686 250.096 30.1914 249.96 30.9902C249.825 31.7889 249.757 32.8043 249.757 34.0363V48.3328H245.858Z" fill="white"/>
</svg>
